<svg width="81" height="81" viewBox="0 0 81 81" fill="none" xmlns="http://www.w3.org/2000/svg">
<path d="M69.6094 8.85938H11.3906C9.99053 8.85938 8.85938 9.99053 8.85938 11.3906V69.6094C8.85938 71.0095 9.99053 72.1406 11.3906 72.1406H69.6094C71.0095 72.1406 72.1406 71.0095 72.1406 69.6094V11.3906C72.1406 9.99053 71.0095 8.85938 69.6094 8.85938ZM66.4453 66.4453H14.5547V14.5547H66.4453V66.4453ZM26.8945 54.0264V60.1172C26.8945 60.4652 27.1793 60.75 27.5273 60.75H31.3242C31.6723 60.75 31.957 60.4652 31.957 60.1172V54.0264C31.1581 54.2874 30.3117 54.4219 29.4258 54.4219C28.5398 54.4219 27.6935 54.2795 26.8945 54.0264ZM31.957 38.3643V20.8828C31.957 20.5348 31.6723 20.25 31.3242 20.25H27.5273C27.1793 20.25 26.8945 20.5348 26.8945 20.8828V38.3643C27.6935 38.1032 28.5398 37.9688 29.4258 37.9688C30.3117 37.9688 31.1581 38.1111 31.957 38.3643ZM26.8945 54.0264C27.6935 54.2874 28.5398 54.4219 29.4258 54.4219C30.3117 54.4219 31.1581 54.2795 31.957 54.0264C35.2635 52.9585 37.6523 49.8577 37.6523 46.1953C37.6523 42.5329 35.2635 39.4321 31.957 38.3643C31.1581 38.1032 30.3117 37.9688 29.4258 37.9688C28.5398 37.9688 27.6935 38.1111 26.8945 38.3643C23.5881 39.4321 21.1992 42.5329 21.1992 46.1953C21.1992 49.8577 23.5881 52.9585 26.8945 54.0264ZM26.9024 44.8743C26.9262 44.8269 26.9578 44.7794 26.9815 44.7319V44.724L27.0765 44.5816C27.0844 44.5658 27.0923 44.5579 27.1002 44.5421C27.1239 44.5025 27.1556 44.4709 27.1793 44.4313C27.1872 44.4234 27.1951 44.4076 27.203 44.3997C27.2426 44.3522 27.2742 44.3127 27.3138 44.2731L27.3375 44.2494L27.4324 44.1545L27.4641 44.1229C27.5036 44.0833 27.5432 44.0517 27.5906 44.0121C27.6381 43.9726 27.6776 43.9409 27.7251 43.9093C27.7409 43.9014 27.7488 43.8935 27.7646 43.8855C27.8042 43.8618 27.8358 43.8302 27.8754 43.8064C27.8833 43.7985 27.8991 43.7906 27.907 43.7827C27.9545 43.7511 28.002 43.7273 28.0573 43.6957C28.0652 43.6878 28.0811 43.6878 28.089 43.6799C28.1285 43.6562 28.1681 43.6403 28.2155 43.6166L28.263 43.5929C28.3184 43.5691 28.3658 43.5454 28.4212 43.5296C28.4766 43.5059 28.5319 43.49 28.5873 43.4742C28.6031 43.4663 28.6189 43.4663 28.6348 43.4584C28.6822 43.4426 28.7218 43.4347 28.7692 43.4268C28.7851 43.4268 28.793 43.4188 28.8088 43.4188C28.8642 43.403 28.9274 43.3951 28.9828 43.3872C28.9986 43.3872 29.0065 43.3872 29.0224 43.3793C29.0698 43.3714 29.1173 43.3714 29.1647 43.3635H29.2122C29.2755 43.3635 29.3309 43.3556 29.3941 43.3556C29.4574 43.3556 29.5128 43.3556 29.5761 43.3635H29.6235C29.671 43.3635 29.7185 43.3714 29.7659 43.3793C29.7817 43.3793 29.7896 43.3793 29.8055 43.3872C29.8608 43.3951 29.9241 43.403 29.9795 43.4188C29.9953 43.4188 30.0032 43.4268 30.019 43.4268C30.0665 43.4347 30.114 43.4505 30.1535 43.4584C30.1693 43.4663 30.1852 43.4663 30.201 43.4742C30.2563 43.49 30.3117 43.5059 30.3671 43.5296C30.4225 43.5454 30.4699 43.5691 30.5253 43.5929L30.5728 43.6166C30.6123 43.6324 30.6598 43.6562 30.6993 43.6799C30.7072 43.6878 30.723 43.6878 30.731 43.6957C30.7784 43.7194 30.8338 43.7511 30.8813 43.7827C30.8892 43.7906 30.905 43.7985 30.9129 43.8064C30.9524 43.8302 30.992 43.8539 31.0236 43.8855C31.0395 43.8935 31.0474 43.9014 31.0632 43.9093C31.1106 43.9409 31.1581 43.9805 31.1977 44.0121C31.2372 44.0438 31.2847 44.0833 31.3242 44.1229L31.3559 44.1545L31.4508 44.2494L31.4745 44.2731C31.5141 44.3127 31.5536 44.3602 31.5853 44.3997C31.5932 44.4076 31.6011 44.4234 31.609 44.4313C31.6406 44.463 31.6644 44.5025 31.6881 44.5421C31.696 44.5579 31.7039 44.5658 31.7118 44.5816L31.8067 44.724C31.8067 44.724 31.8067 44.7319 31.8146 44.7319C32.0783 45.1746 32.2177 45.6801 32.2181 46.1953C32.2181 46.6699 32.0994 47.1208 31.8938 47.5163C31.87 47.5638 31.8384 47.6112 31.8146 47.6587C31.8146 47.6587 31.8146 47.6666 31.8067 47.6666L31.7118 47.809C31.7039 47.8248 31.696 47.8327 31.6881 47.8485C31.6644 47.8881 31.6327 47.9197 31.609 47.9593C31.6011 47.9672 31.5932 47.983 31.5853 47.9909C31.5457 48.0384 31.5141 48.0779 31.4745 48.1175L31.4508 48.1412L31.3559 48.2361L31.3242 48.2678C31.2847 48.3073 31.2451 48.339 31.1977 48.3785C31.1502 48.4181 31.1106 48.4497 31.0632 48.4813C31.0474 48.4893 31.0395 48.4972 31.0236 48.5051C30.9841 48.5288 30.9524 48.5605 30.9129 48.5842C30.905 48.5921 30.8892 48.6 30.8813 48.6079C30.8338 48.6395 30.7863 48.6633 30.731 48.6949C30.723 48.7028 30.7072 48.7028 30.6993 48.7107C30.6598 48.7345 30.6202 48.7503 30.5728 48.774L30.5253 48.7978C30.4699 48.8215 30.4225 48.8452 30.3671 48.861C30.3117 48.8848 30.2563 48.9006 30.201 48.9164C30.1852 48.9243 30.1693 48.9243 30.1535 48.9322C30.1061 48.948 30.0665 48.956 30.019 48.9639C30.0032 48.9639 29.9953 48.9718 29.9795 48.9718C29.9241 48.9876 29.8608 48.9955 29.8055 49.0034C29.7896 49.0034 29.7817 49.0034 29.7659 49.0113C29.7185 49.0192 29.671 49.0192 29.6235 49.0271H29.5761C29.5128 49.0271 29.4574 49.0351 29.3941 49.0351C29.3309 49.0351 29.2755 49.0351 29.2122 49.0271H29.1647C29.1173 49.0271 29.0698 49.0192 29.0224 49.0113C29.0065 49.0113 28.9986 49.0113 28.9828 49.0034C28.9274 48.9955 28.8642 48.9876 28.8088 48.9718C28.793 48.9718 28.7851 48.9639 28.7692 48.9639C28.7218 48.956 28.6743 48.9401 28.6348 48.9322C28.6189 48.9243 28.6031 48.9243 28.5873 48.9164C28.5319 48.9006 28.4766 48.8848 28.4212 48.861C28.3658 48.8452 28.3184 48.8215 28.263 48.7978L28.2155 48.774C28.176 48.7582 28.1285 48.7345 28.089 48.7107C28.0811 48.7028 28.0652 48.7028 28.0573 48.6949C28.0099 48.6712 27.9545 48.6395 27.907 48.6079C27.8991 48.6 27.8833 48.5921 27.8754 48.5842C27.8358 48.5605 27.7963 48.5367 27.7646 48.5051C27.7488 48.4972 27.7409 48.4893 27.7251 48.4813C27.6776 48.4497 27.6302 48.4102 27.5906 48.3785C27.5511 48.3469 27.5036 48.3073 27.4641 48.2678L27.4324 48.2361L27.3375 48.1412L27.3138 48.1175C27.2742 48.0779 27.2347 48.0305 27.203 47.9909C27.1951 47.983 27.1872 47.9672 27.1793 47.9593C27.1477 47.9276 27.1239 47.8881 27.1002 47.8485C27.0923 47.8327 27.0844 47.8248 27.0765 47.809L26.9815 47.6666V47.6587C26.9499 47.6112 26.9262 47.5638 26.9024 47.5163C26.6968 47.1208 26.5781 46.6699 26.5781 46.1953C26.5781 45.7207 26.6968 45.2698 26.9024 44.8743ZM49.043 42.6357V60.1172C49.043 60.4652 49.3277 60.75 49.6758 60.75H53.4727C53.8207 60.75 54.1055 60.4652 54.1055 60.1172V42.6357C53.3065 42.8968 52.4602 43.0312 51.5742 43.0312C50.6883 43.0312 49.8419 42.8889 49.043 42.6357ZM54.1055 26.9736V20.8828C54.1055 20.5348 53.8207 20.25 53.4727 20.25H49.6758C49.3277 20.25 49.043 20.5348 49.043 20.8828V26.9736C49.8419 26.7126 50.6883 26.5781 51.5742 26.5781C52.4602 26.5781 53.3065 26.7205 54.1055 26.9736ZM49.043 42.6357C49.8419 42.8968 50.6883 43.0312 51.5742 43.0312C52.4602 43.0312 53.3065 42.8889 54.1055 42.6357C57.4119 41.5679 59.8008 38.4671 59.8008 34.8047C59.8008 31.1423 57.4119 28.0415 54.1055 26.9736C53.3065 26.7126 52.4602 26.5781 51.5742 26.5781C50.6883 26.5781 49.8419 26.7205 49.043 26.9736C45.7365 28.0415 43.3477 31.1423 43.3477 34.8047C43.3477 38.4671 45.7365 41.5679 49.043 42.6357ZM49.0509 33.4837C49.0746 33.4362 49.1062 33.3888 49.13 33.3413V33.3334L49.2249 33.191C49.2328 33.1752 49.2407 33.1673 49.2486 33.1515C49.2724 33.1119 49.304 33.0803 49.3277 33.0407C49.3356 33.0328 49.3436 33.017 49.3515 33.0091C49.391 32.9616 49.4227 32.9221 49.4622 32.8825L49.4859 32.8588L49.5809 32.7639L49.6125 32.7322C49.6521 32.6927 49.6916 32.661 49.7391 32.6215C49.7865 32.5819 49.8261 32.5503 49.8735 32.5187C49.8894 32.5107 49.8973 32.5028 49.9131 32.4949C49.9526 32.4712 49.9843 32.4396 50.0238 32.4158C50.0317 32.4079 50.0476 32.4 50.0555 32.3921C50.1029 32.3604 50.1504 32.3367 50.2058 32.3051C50.2137 32.2972 50.2295 32.2972 50.2374 32.2893C50.277 32.2655 50.3165 32.2497 50.364 32.226L50.4114 32.2022C50.4668 32.1785 50.5143 32.1548 50.5696 32.139C50.625 32.1152 50.6804 32.0994 50.7357 32.0836C50.7516 32.0757 50.7674 32.0757 50.7832 32.0678C50.8307 32.052 50.8702 32.044 50.9177 32.0361C50.9335 32.0361 50.9414 32.0282 50.9572 32.0282C51.0126 32.0124 51.0759 32.0045 51.1313 31.9966C51.1471 31.9966 51.155 31.9966 51.1708 31.9887C51.2183 31.9808 51.2657 31.9808 51.3132 31.9729H51.3606C51.4239 31.9729 51.4793 31.9649 51.5426 31.9649C51.6059 31.9649 51.6612 31.9649 51.7245 31.9729H51.772C51.8194 31.9729 51.8669 31.9808 51.9144 31.9887C51.9302 31.9887 51.9381 31.9887 51.9539 31.9966C52.0093 32.0045 52.0726 32.0124 52.1279 32.0282C52.1437 32.0282 52.1517 32.0361 52.1675 32.0361C52.2149 32.044 52.2624 32.0599 52.302 32.0678C52.3178 32.0757 52.3336 32.0757 52.3494 32.0836C52.4048 32.0994 52.4602 32.1152 52.5155 32.139C52.5709 32.1548 52.6184 32.1785 52.6737 32.2022L52.7212 32.226C52.7607 32.2418 52.8082 32.2655 52.8478 32.2893C52.8557 32.2972 52.8715 32.2972 52.8794 32.3051C52.9269 32.3288 52.9822 32.3604 53.0297 32.3921C53.0376 32.4 53.0534 32.4079 53.0613 32.4158C53.1009 32.4396 53.1404 32.4633 53.1721 32.4949C53.1879 32.5028 53.1958 32.5107 53.2116 32.5187C53.2591 32.5503 53.3065 32.5898 53.3461 32.6215C53.3856 32.6531 53.4331 32.6927 53.4727 32.7322L53.5043 32.7639L53.5992 32.8588L53.623 32.8825C53.6625 32.9221 53.702 32.9695 53.7337 33.0091C53.7416 33.017 53.7495 33.0328 53.7574 33.0407C53.7891 33.0724 53.8128 33.1119 53.8365 33.1515C53.8444 33.1673 53.8523 33.1752 53.8603 33.191L53.9552 33.3334V33.3413C54.2188 33.7839 54.3582 34.2895 54.3586 34.8047C54.3586 35.2793 54.2399 35.7302 54.0343 36.1257C54.0105 36.1731 53.9789 36.2206 53.9552 36.2681V36.276L53.8603 36.4184C53.8523 36.4342 53.8444 36.4421 53.8365 36.4579C53.8128 36.4975 53.7812 36.5291 53.7574 36.5687C53.7495 36.5766 53.7416 36.5924 53.7337 36.6003C53.6941 36.6478 53.6625 36.6873 53.623 36.7269L53.5992 36.7506L53.5043 36.8455L53.4727 36.8771C53.4331 36.9167 53.3936 36.9483 53.3461 36.9879C53.2986 37.0274 53.2591 37.0591 53.2116 37.0907C53.1958 37.0986 53.1879 37.1065 53.1721 37.1145C53.1325 37.1382 53.1009 37.1698 53.0613 37.1936C53.0534 37.2015 53.0376 37.2094 53.0297 37.2173C52.9822 37.2489 52.9348 37.2727 52.8794 37.3043C52.8715 37.3122 52.8557 37.3122 52.8478 37.3201C52.8082 37.3438 52.7687 37.3597 52.7212 37.3834L52.6737 37.4071C52.6184 37.4309 52.5709 37.4546 52.5155 37.4704C52.4602 37.4941 52.4048 37.51 52.3494 37.5258C52.3336 37.5337 52.3178 37.5337 52.302 37.5416C52.2545 37.5574 52.2149 37.5653 52.1675 37.5732C52.1517 37.5732 52.1437 37.5812 52.1279 37.5812C52.0726 37.597 52.0093 37.6049 51.9539 37.6128C51.9381 37.6128 51.9302 37.6128 51.9144 37.6207C51.8669 37.6286 51.8194 37.6286 51.772 37.6365H51.7245C51.6612 37.6365 51.6059 37.6444 51.5426 37.6444C51.4793 37.6444 51.4239 37.6444 51.3606 37.6365H51.3132C51.2657 37.6365 51.2183 37.6286 51.1708 37.6207C51.155 37.6207 51.1471 37.6207 51.1313 37.6128C51.0759 37.6049 51.0126 37.597 50.9572 37.5812C50.9414 37.5812 50.9335 37.5732 50.9177 37.5732C50.8702 37.5653 50.8228 37.5495 50.7832 37.5416C50.7674 37.5337 50.7516 37.5337 50.7357 37.5258C50.6804 37.51 50.625 37.4941 50.5696 37.4704C50.5143 37.4546 50.4668 37.4309 50.4114 37.4071L50.364 37.3834C50.3244 37.3676 50.277 37.3438 50.2374 37.3201C50.2295 37.3122 50.2137 37.3122 50.2058 37.3043C50.1583 37.2806 50.1029 37.2489 50.0555 37.2173C50.0476 37.2094 50.0317 37.2015 50.0238 37.1936C49.9843 37.1698 49.9447 37.1461 49.9131 37.1145C49.8973 37.1065 49.8894 37.0986 49.8735 37.0907C49.8261 37.0591 49.7786 37.0195 49.7391 36.9879C49.6995 36.9563 49.6521 36.9167 49.6125 36.8771L49.5809 36.8455L49.4859 36.7506L49.4622 36.7269C49.4227 36.6873 49.3831 36.6398 49.3515 36.6003C49.3436 36.5924 49.3356 36.5766 49.3277 36.5687C49.2961 36.537 49.2724 36.4975 49.2486 36.4579C49.2407 36.4421 49.2328 36.4342 49.2249 36.4184L49.13 36.276V36.2681C49.0983 36.2206 49.0746 36.1731 49.0509 36.1257C48.8452 35.7302 48.7266 35.2793 48.7266 34.8047C48.7266 34.3301 48.8452 33.8792 49.0509 33.4837Z" fill="url(#paint0_linear_115_249)"/>
<defs>
<linearGradient id="paint0_linear_115_249" x1="83" y1="-1" x2="40.5" y2="72.1406" gradientUnits="userSpaceOnUse">
<stop stop-color="#FF7DDF"/>
<stop offset="1" stop-color="#E65B9D"/>
</linearGradient>
</defs>
</svg>
