<svg width="68" height="68" viewBox="0 0 68 68" fill="none" xmlns="http://www.w3.org/2000/svg">
<path d="M32.946 0.279815C33.267 0.0964474 33.6303 0 34 0C34.3697 0 34.733 0.0964474 35.054 0.279815L50.9915 9.38757C51.3167 9.57335 51.5871 9.8418 51.7752 10.1657C51.9633 10.4896 52.0624 10.8575 52.0625 11.2321V28.2108L66.929 36.7108C67.253 36.8959 67.5225 37.163 67.7105 37.4853C67.8986 37.8076 67.9984 38.1737 68 38.5468V56.7623C67.9999 57.1369 67.9008 57.5048 67.7127 57.8287C67.5246 58.1526 67.2542 58.421 66.929 58.6068L50.9915 67.7146C50.6705 67.8979 50.3072 67.9944 49.9375 67.9944C49.5678 67.9944 49.2045 67.8979 48.8835 67.7146L34 59.2146L19.1165 67.7188C18.7955 67.9022 18.4322 67.9986 18.0625 67.9986C17.6928 67.9986 17.3295 67.9022 17.0085 67.7188L1.071 58.6111C0.74576 58.4253 0.475404 58.1568 0.287323 57.8329C0.0992429 57.509 0.000120815 57.1411 0 56.7666L0 38.5511C0.000120815 38.1765 0.0992429 37.8086 0.287323 37.4847C0.475404 37.1608 0.74576 36.8923 1.071 36.7066L15.9375 28.2108V11.2321C15.9376 10.8575 16.0367 10.4896 16.2248 10.1657C16.4129 9.8418 16.6833 9.57335 17.0085 9.38757L32.946 0.279815ZM18.0625 31.8913L6.409 38.5511L18.0625 45.2108L29.716 38.5511L18.0625 31.8913ZM31.875 42.2146L20.1875 48.8913V62.2108L31.875 55.5341V42.2146ZM36.125 55.5341L47.8125 62.2108V48.8913L36.125 42.2146V55.5341ZM38.284 38.5511L49.9375 45.2108L61.591 38.5511L49.9375 31.8913L38.284 38.5511ZM47.8125 28.2108V14.8913L36.125 21.5723V34.8918L47.8125 28.2108ZM31.875 34.8918V21.5723L20.1875 14.8913V28.2108L31.875 34.8918ZM22.3465 11.2321L34 17.8918L45.6535 11.2321L34 4.57231L22.3465 11.2321ZM63.75 42.2146L52.0625 48.8913V62.2108L63.75 55.5341V42.2146ZM15.9375 62.2108V48.8913L4.25 42.2146V55.5341L15.9375 62.2108Z" fill="url(#paint0_linear_115_257)"/>
<defs>
<linearGradient id="paint0_linear_115_257" x1="79.6691" y1="-10.5944" x2="34.0014" y2="67.9994" gradientUnits="userSpaceOnUse">
<stop stop-color="#FF7DDF"/>
<stop offset="1" stop-color="#E65B9D"/>
</linearGradient>
</defs>
</svg>
