<svg width="41" height="41" viewBox="0 0 41 41" fill="none" xmlns="http://www.w3.org/2000/svg">
<path d="M19.8645 0.168712C20.0581 0.0581521 20.2771 0 20.5 0C20.7229 0 20.9419 0.0581521 21.1355 0.168712L30.7449 5.66015C30.941 5.77217 31.104 5.93402 31.2174 6.12933C31.3308 6.32463 31.3906 6.54644 31.3906 6.77227V17.0095L40.3543 22.1345C40.5496 22.246 40.7121 22.4071 40.8255 22.6014C40.9388 22.7957 40.999 23.0165 41 23.2415V34.2243C40.9999 34.4502 40.9402 34.672 40.8268 34.8673C40.7134 35.0626 40.5504 35.2244 40.3543 35.3365L30.7449 40.8279C30.5513 40.9385 30.3323 40.9966 30.1094 40.9966C29.8865 40.9966 29.6674 40.9385 29.4739 40.8279L20.5 35.7029L11.5261 40.8305C11.3326 40.941 11.1135 40.9992 10.8906 40.9992C10.6677 40.9992 10.4487 40.941 10.2551 40.8305L0.64575 35.339C0.449649 35.227 0.286641 35.0652 0.173239 34.8698C0.0598376 34.6745 7.28443e-05 34.4527 0 34.2269L0 23.244C7.28443e-05 23.0182 0.0598376 22.7964 0.173239 22.6011C0.286641 22.4058 0.449649 22.2439 0.64575 22.1319L9.60938 17.0095V6.77227C9.60945 6.54644 9.66921 6.32463 9.78261 6.12933C9.89602 5.93402 10.059 5.77217 10.2551 5.66015L19.8645 0.168712ZM10.8906 19.2286L3.86425 23.244L10.8906 27.2595L17.917 23.244L10.8906 19.2286ZM19.2188 25.4529L12.1719 29.4786V37.5095L19.2188 33.4838V25.4529ZM21.7812 33.4838L28.8281 37.5095V29.4786L21.7812 25.4529V33.4838ZM23.083 23.244L30.1094 27.2595L37.1357 23.244L30.1094 19.2286L23.083 23.244ZM28.8281 17.0095V8.97859L21.7812 13.0068V21.0377L28.8281 17.0095ZM19.2188 21.0377V13.0068L12.1719 8.97859V17.0095L19.2188 21.0377ZM13.4736 6.77227L20.5 10.7877L27.5264 6.77227L20.5 2.75684L13.4736 6.77227ZM38.4375 25.4529L31.3906 29.4786V37.5095L38.4375 33.4838V25.4529ZM9.60938 37.5095V29.4786L2.5625 25.4529V33.4838L9.60938 37.5095Z" fill="white"/>
</svg>
