<svg width="48" height="48" viewBox="0 0 48 48" fill="none" xmlns="http://www.w3.org/2000/svg">
<path d="M27.4138 4.586C27.0388 4.21106 26.5302 4.00043 25.9998 4.00043C25.4695 4.00043 24.9609 4.21106 24.5858 4.586L12.9058 16.266C12.8758 16.264 12.8478 16.248 12.8178 16.248C12.2874 16.2481 11.7788 16.4589 11.4038 16.834L8.57583 19.662C8.01877 20.2194 7.57697 20.8811 7.27567 21.6093C6.97437 22.3375 6.81948 23.1179 6.81983 23.906C6.81983 25.51 7.44583 27.018 8.57783 28.148L9.99183 29.562L5.74783 33.806C5.18811 34.3556 4.74486 35.0124 4.44454 35.7371C4.14421 36.4618 3.99297 37.2396 3.99983 38.024C3.99067 38.9028 4.17661 39.7726 4.54425 40.5708C4.91189 41.3691 5.45207 42.0758 6.12583 42.64C7.16383 43.518 8.50183 44 9.89583 44C11.5638 44 13.2038 43.318 14.3958 42.126L18.4758 38.048L19.8898 39.46C22.1578 41.726 26.1078 41.728 28.3738 39.462L31.2038 36.634C31.5789 36.259 31.7897 35.7504 31.7898 35.22C31.7898 35.168 31.7638 35.12 31.7598 35.068L43.4138 23.414C43.7888 23.0389 43.9994 22.5303 43.9994 22C43.9994 21.4697 43.7888 20.9611 43.4138 20.586L27.4138 4.586ZM25.5438 36.634C25.1628 36.9978 24.6562 37.2006 24.1294 37.2002C23.6026 37.1999 23.0963 36.9963 22.7158 36.632L19.8878 33.806C19.5128 33.4311 19.0042 33.2204 18.4738 33.2204C17.9435 33.2204 17.4349 33.4311 17.0598 33.806L11.5678 39.296C11.1241 39.7404 10.5238 39.9931 9.89583 40C9.46267 40.0088 9.04087 39.8611 8.70783 39.584C8.47888 39.3941 8.29615 39.1546 8.17349 38.8836C8.05082 38.6127 7.99144 38.3173 7.99983 38.02C7.99786 37.7626 8.04765 37.5075 8.14626 37.2697C8.24487 37.0319 8.39027 36.8164 8.57383 36.636L14.2318 30.978C14.6068 30.6029 14.8174 30.0943 14.8174 29.564C14.8174 29.0337 14.6068 28.5251 14.2318 28.15L11.4018 25.32C11.028 24.9452 10.8179 24.4374 10.8178 23.908C10.8178 23.372 11.0258 22.87 11.4038 22.492L12.8178 21.078L26.9598 35.222L25.5438 36.634ZM29.3218 31.85L16.1498 18.678L25.9998 8.828L39.1718 22L29.3218 31.85Z" fill="white"/>
</svg>
