<svg width="66" height="60" viewBox="0 0 66 60" fill="none" xmlns="http://www.w3.org/2000/svg">
<path d="M3 3V0C2.20435 0 1.44129 0.31607 0.87868 0.87868C0.31607 1.44129 0 2.20435 0 3H3ZM36 3H39C39 2.20435 38.6839 1.44129 38.1213 0.87868C37.5587 0.31607 36.7957 0 36 0V3ZM36 21V18C35.2043 18 34.4413 18.3161 33.8787 18.8787C33.3161 19.4413 33 20.2044 33 21H36ZM3 6H36V0H3V6ZM33 3V51H39V3H33ZM6 45V3H0V45H6ZM36 24H51V18H36V24ZM60 33V45H66V33H60ZM39 51V21H33V51H39ZM53.121 53.121C52.5584 53.6834 51.7955 53.9994 51 53.9994C50.2045 53.9994 49.4416 53.6834 48.879 53.121L44.637 57.363C46.3247 59.0502 48.6135 59.9981 51 59.9981C53.3865 59.9981 55.6753 59.0502 57.363 57.363L53.121 53.121ZM48.879 48.879C49.4416 48.3166 50.2045 48.0006 51 48.0006C51.7955 48.0006 52.5584 48.3166 53.121 48.879L57.363 44.637C55.6753 42.9498 53.3865 42.0019 51 42.0019C48.6135 42.0019 46.3247 42.9498 44.637 44.637L48.879 48.879ZM17.121 53.121C16.5584 53.6834 15.7955 53.9994 15 53.9994C14.2045 53.9994 13.4416 53.6834 12.879 53.121L8.637 57.363C10.3247 59.0502 12.6135 59.9981 15 59.9981C17.3865 59.9981 19.6753 59.0502 21.363 57.363L17.121 53.121ZM12.879 48.879C13.4416 48.3166 14.2045 48.0006 15 48.0006C15.7955 48.0006 16.5584 48.3166 17.121 48.879L21.363 44.637C19.6753 42.9498 17.3865 42.0019 15 42.0019C12.6135 42.0019 10.3247 42.9498 8.637 44.637L12.879 48.879ZM53.121 48.879C53.709 49.464 54 50.229 54 51H60C60 48.702 59.121 46.392 57.363 44.637L53.121 48.879ZM54 51C53.9998 51.7956 53.6837 52.5585 53.121 53.121L57.363 57.363C59.0509 55.6756 59.9995 53.3868 60 51H54ZM45 48H36V54H45V48ZM48.879 53.121C48.3163 52.5585 48.0002 51.7956 48 51H42C42 53.298 42.879 55.608 44.637 57.363L48.879 53.121ZM48 51C48.0002 50.2044 48.3163 49.4415 48.879 48.879L44.637 44.637C42.9491 46.3244 42.0005 48.6132 42 51H48ZM12.879 53.121C12.3164 52.5585 12.0002 51.7956 12 51H6C6 53.298 6.879 55.608 8.637 57.363L12.879 53.121ZM12 51C12.0002 50.2044 12.3164 49.4415 12.879 48.879L8.637 44.637C6.94906 46.3244 6.00051 48.6132 6 51H12ZM36 48H21V54H36V48ZM17.121 48.879C17.709 49.464 18 50.229 18 51H24C24 48.702 23.121 46.392 21.363 44.637L17.121 48.879ZM18 51C17.9998 51.7956 17.6836 52.5585 17.121 53.121L21.363 57.363C23.0509 55.6756 23.9995 53.3868 24 51H18ZM60 45C60 45.7957 59.6839 46.5587 59.1213 47.1213C58.5587 47.6839 57.7957 48 57 48V54C59.3869 54 61.6761 53.0518 63.364 51.364C65.0518 49.6761 66 47.3869 66 45H60ZM51 24C53.3869 24 55.6761 24.9482 57.364 26.636C59.0518 28.3239 60 30.6131 60 33H66C66 31.0302 65.612 29.0796 64.8582 27.2598C64.1044 25.4399 62.9995 23.7863 61.6066 22.3934C60.2137 21.0005 58.5601 19.8956 56.7403 19.1418C54.9204 18.388 52.9698 18 51 18V24ZM0 45C0 47.3869 0.948211 49.6761 2.63604 51.364C4.32387 53.0518 6.61305 54 9 54V48C8.20435 48 7.44129 47.6839 6.87868 47.1213C6.31607 46.5587 6 45.7957 6 45H0Z" fill="url(#paint0_linear_115_251)"/>
<defs>
<linearGradient id="paint0_linear_115_251" x1="77.3259" y1="-9.34785" x2="39.0165" y2="63.1762" gradientUnits="userSpaceOnUse">
<stop stop-color="#FF7DDF"/>
<stop offset="1" stop-color="#E65B9D"/>
</linearGradient>
</defs>
</svg>
