<svg width="42" height="42" viewBox="0 0 42 42" fill="none" xmlns="http://www.w3.org/2000/svg">
<path d="M3.5 5.25V3.5C3.03587 3.5 2.59075 3.68437 2.26256 4.01256C1.93437 4.34075 1.75 4.78587 1.75 5.25H3.5ZM22.75 5.25H24.5C24.5 4.78587 24.3156 4.34075 23.9874 4.01256C23.6592 3.68437 23.2141 3.5 22.75 3.5V5.25ZM22.75 15.75V14C22.2859 14 21.8408 14.1844 21.5126 14.5126C21.1844 14.8408 21 15.2859 21 15.75H22.75ZM3.5 7H22.75V3.5H3.5V7ZM21 5.25V33.25H24.5V5.25H21ZM5.25 29.75V5.25H1.75V29.75H5.25ZM22.75 17.5H31.5V14H22.75V17.5ZM36.75 22.75V29.75H40.25V22.75H36.75ZM24.5 33.25V15.75H21V33.25H24.5ZM32.7373 34.4873C32.4091 34.8153 31.964 34.9996 31.5 34.9996C31.036 34.9996 30.5909 34.8153 30.2627 34.4873L27.7882 36.9618C28.7728 37.946 30.1079 38.4989 31.5 38.4989C32.8921 38.4989 34.2272 37.946 35.2118 36.9618L32.7373 34.4873ZM30.2627 32.0127C30.5909 31.6847 31.036 31.5004 31.5 31.5004C31.964 31.5004 32.4091 31.6847 32.7373 32.0127L35.2118 29.5382C34.2272 28.554 32.8921 28.0011 31.5 28.0011C30.1079 28.0011 28.7728 28.554 27.7882 29.5382L30.2627 32.0127ZM11.7372 34.4873C11.4091 34.8153 10.964 34.9996 10.5 34.9996C10.036 34.9996 9.59092 34.8153 9.26275 34.4873L6.78825 36.9618C7.77277 37.946 9.10789 38.4989 10.5 38.4989C11.8921 38.4989 13.2272 37.946 14.2118 36.9618L11.7372 34.4873ZM9.26275 32.0127C9.59092 31.6847 10.036 31.5004 10.5 31.5004C10.964 31.5004 11.4091 31.6847 11.7372 32.0127L14.2118 29.5382C13.2272 28.554 11.8921 28.0011 10.5 28.0011C9.10789 28.0011 7.77277 28.554 6.78825 29.5382L9.26275 32.0127ZM32.7373 32.0127C33.0803 32.354 33.25 32.8002 33.25 33.25H36.75C36.75 31.9095 36.2373 30.562 35.2118 29.5382L32.7373 32.0127ZM33.25 33.25C33.2499 33.7141 33.0655 34.1591 32.7373 34.4873L35.2118 36.9618C36.1964 35.9774 36.7497 34.6423 36.75 33.25H33.25ZM28 31.5H22.75V35H28V31.5ZM30.2627 34.4873C29.9345 34.1591 29.7501 33.7141 29.75 33.25H26.25C26.25 34.5905 26.7627 35.938 27.7882 36.9618L30.2627 34.4873ZM29.75 33.25C29.7501 32.7859 29.9345 32.3409 30.2627 32.0127L27.7882 29.5382C26.8036 30.5226 26.2503 31.8577 26.25 33.25H29.75ZM9.26275 34.4873C8.93454 34.1591 8.7501 33.7141 8.75 33.25H5.25C5.25 34.5905 5.76275 35.938 6.78825 36.9618L9.26275 34.4873ZM8.75 33.25C8.7501 32.7859 8.93454 32.3409 9.26275 32.0127L6.78825 29.5382C5.80362 30.5226 5.2503 31.8577 5.25 33.25H8.75ZM22.75 31.5H14V35H22.75V31.5ZM11.7372 32.0127C12.0802 32.354 12.25 32.8002 12.25 33.25H15.75C15.75 31.9095 15.2373 30.562 14.2118 29.5382L11.7372 32.0127ZM12.25 33.25C12.2499 33.7141 12.0655 34.1591 11.7372 34.4873L14.2118 36.9618C15.1964 35.9774 15.7497 34.6423 15.75 33.25H12.25ZM36.75 29.75C36.75 30.2141 36.5656 30.6593 36.2374 30.9874C35.9092 31.3156 35.4641 31.5 35 31.5V35C36.3924 35 37.7277 34.4469 38.7123 33.4623C39.6969 32.4777 40.25 31.1424 40.25 29.75H36.75ZM31.5 17.5C32.8924 17.5 34.2277 18.0531 35.2123 19.0377C36.1969 20.0223 36.75 21.3576 36.75 22.75H40.25C40.25 21.6009 40.0237 20.4631 39.5839 19.4015C39.1442 18.3399 38.4997 17.3753 37.6872 16.5628C36.8747 15.7503 35.9101 15.1058 34.8485 14.6661C33.7869 14.2263 32.6491 14 31.5 14V17.5ZM1.75 29.75C1.75 31.1424 2.30312 32.4777 3.28769 33.4623C4.27226 34.4469 5.60761 35 7 35V31.5C6.53587 31.5 6.09075 31.3156 5.76256 30.9874C5.43437 30.6593 5.25 30.2141 5.25 29.75H1.75Z" fill="white"/>
</svg>
