<svg width="73" height="73" viewBox="0 0 73 73" fill="none" xmlns="http://www.w3.org/2000/svg">
<path d="M20.5311 13.6875C20.231 13.6876 19.9339 13.7468 19.6567 13.8619C19.3796 13.977 19.1278 14.1457 18.916 14.3582L5.22847 28.0457C4.8008 28.4735 4.56055 29.0536 4.56055 29.6585C4.56055 30.2634 4.8008 30.8436 5.22847 31.2714L32.6035 58.6464C32.8154 58.8588 33.0671 59.0274 33.3443 59.1424C33.6214 59.2574 33.9185 59.3166 34.2186 59.3166C34.5187 59.3166 34.8158 59.2574 35.0929 59.1424C35.3701 59.0274 35.6218 58.8588 35.8337 58.6464L63.2087 31.2714C63.4212 31.0595 63.5897 30.8077 63.7047 30.5306C63.8197 30.2534 63.8789 29.9563 63.8789 29.6563C63.8789 29.3562 63.8197 29.0591 63.7047 28.7819C63.5897 28.5048 63.4212 28.253 63.2087 28.0411L49.5212 14.3536C49.309 14.1419 49.0571 13.9741 48.7799 13.8598C48.5028 13.7455 48.2059 13.687 47.9061 13.6875H20.5311ZM21.4755 18.25H26.1475L21.4208 27.375H12.3505L21.4755 18.25ZM31.2803 18.25H37.1614L41.8745 27.375H26.5627L31.2803 18.25ZM42.2942 18.25H46.9617L56.0867 27.375H47.0164L42.2942 18.25ZM12.3505 31.9375H21.2976L27.8722 47.4591L12.3505 31.9375ZM26.2616 31.9375H42.1756L34.2186 50.7213L26.2616 31.9375ZM47.1396 31.9375H56.0867L40.565 47.4591L47.1396 31.9375Z" fill="url(#paint0_linear_115_263)"/>
<defs>
<linearGradient id="paint0_linear_115_263" x1="74.0582" y1="6.57838" x2="47.777" y2="65.3764" gradientUnits="userSpaceOnUse">
<stop stop-color="#FF7DDF"/>
<stop offset="1" stop-color="#E65B9D"/>
</linearGradient>
</defs>
</svg>
