<svg width="24" height="24" viewBox="0 0 24 24" fill="none" xmlns="http://www.w3.org/2000/svg">
<path d="M3.2 20C2.595 20 2.07727 19.7921 1.6468 19.3763C1.21633 18.9605 1.00073 18.4601 1 17.875V5.125C1 4.54062 1.2156 4.04054 1.6468 3.62475C2.078 3.20896 2.59573 3.00071 3.2 3H20.8C21.405 3 21.9231 3.20825 22.3543 3.62475C22.7855 4.04125 23.0007 4.54133 23 5.125V17.875C23 18.4594 22.7848 18.9598 22.3543 19.3763C21.9238 19.7928 21.4057 20.0007 20.8 20H3.2ZM12 12.5625L20.8 7.25V5.125L12 10.4375L3.2 5.125V7.25L12 12.5625Z" fill="#E653A3"/>
</svg>
