<svg xmlns="http://www.w3.org/2000/svg" width="35" height="34" viewBox="0 0 35 34" fill="none">
  <path d="M16.4698 0.690964C16.7692 -0.230346 18.0726 -0.230344 18.372 0.690967L21.7989 11.2381C21.9328 11.6501 22.3168 11.9291 22.75 11.9291H33.8399C34.8086 11.9291 35.2114 13.1687 34.4277 13.7381L25.4557 20.2566C25.1053 20.5112 24.9586 20.9626 25.0925 21.3746L28.5194 31.9217C28.8188 32.843 27.7643 33.6091 26.9806 33.0397L18.0087 26.5213C17.6582 26.2666 17.1836 26.2666 16.8331 26.5213L7.8612 33.0397C7.07748 33.6091 6.02301 32.843 6.32236 31.9217L9.74932 21.3746C9.8832 20.9626 9.73654 20.5112 9.38605 20.2566L0.414136 13.7381C-0.369578 13.1687 0.0332003 11.9291 1.00192 11.9291H12.0918C12.525 11.9291 12.909 11.6501 13.0429 11.2381L16.4698 0.690964Z" fill="#FFD23D"/>
</svg>