<svg width="21" height="21" viewBox="0 0 21 21" fill="none" xmlns="http://www.w3.org/2000/svg">
<path fill-rule="evenodd" clip-rule="evenodd" d="M3.07559 1.13893C3.29431 0.920544 3.55694 0.751131 3.84608 0.641921C4.13523 0.532711 4.44428 0.486197 4.75276 0.505462C5.06124 0.524727 5.36211 0.609332 5.63542 0.753669C5.90873 0.898005 6.14824 1.09878 6.33809 1.34268L8.58184 4.22518C8.99309 4.75393 9.13809 5.44268 8.97559 6.09268L8.29184 8.83018C8.25673 8.97198 8.25877 9.12044 8.29774 9.26122C8.33671 9.40201 8.41131 9.53037 8.51434 9.63393L11.5856 12.7052C11.6893 12.8084 11.8179 12.8831 11.9589 12.9221C12.0999 12.9611 12.2486 12.963 12.3906 12.9277L15.1268 12.2439C15.4476 12.1642 15.7823 12.1582 16.1058 12.2264C16.4292 12.2946 16.733 12.4352 16.9943 12.6377L19.8768 14.8802C20.9131 15.6864 21.0081 17.2177 20.0806 18.1439L18.7881 19.4364C17.8631 20.3614 16.4806 20.7677 15.1918 20.3139C11.8927 19.1547 8.89751 17.2661 6.42934 14.7889C3.9523 12.3211 2.06378 9.3264 0.904339 6.02768C0.451839 4.74018 0.858089 3.35643 1.78309 2.43143L3.07559 1.13893Z" fill="#E653A3"/>
</svg>
