<svg xmlns="http://www.w3.org/2000/svg" width="40" height="40" viewBox="0 0 40 40" fill="none">
  <path d="M27.5934 21.51L26.835 22.265C26.835 22.265 25.03 24.0583 20.105 19.1617C15.18 14.265 16.985 12.4717 16.985 12.4717L17.4617 11.995C18.64 10.825 18.7517 8.945 17.7234 7.57167L15.6234 4.76667C14.35 3.06667 11.8917 2.84167 10.4334 4.29167L7.81671 6.89167C7.09504 7.61167 6.61171 8.54167 6.67004 9.575C6.82004 12.22 8.01671 17.9083 14.69 24.545C21.7684 31.5817 28.41 31.8617 31.125 31.6083C31.985 31.5283 32.7317 31.0917 33.3334 30.4917L35.7 28.1383C37.3 26.55 36.85 23.825 34.8034 22.7133L31.62 20.9817C30.2767 20.2533 28.6434 20.4667 27.5934 21.51Z" fill="#DD50A1"/>
</svg>