<svg width="60" height="60" viewBox="0 0 60 60" fill="none" xmlns="http://www.w3.org/2000/svg">
<circle cx="30" cy="30" r="30" fill="#52B8D2"/>
<path fill-rule="evenodd" clip-rule="evenodd" d="M41.1376 16.1988C41.5391 16.0297 41.9787 15.9714 42.4104 16.0299C42.8421 16.0884 43.2503 16.2616 43.5924 16.5314C43.9345 16.8011 44.1981 17.1577 44.3557 17.5639C44.5132 17.9701 44.559 18.4111 44.4883 18.841L40.8028 41.1961C40.4453 43.3525 38.0793 44.5891 36.1017 43.515C34.4474 42.6164 31.9904 41.2319 29.7804 39.7873C28.6754 39.0641 25.2906 36.7485 25.7066 35.1008C26.0641 33.6919 31.7516 28.3976 35.0016 25.25C36.2772 24.0134 35.6954 23.3 34.1891 24.4375C30.4483 27.2618 24.4423 31.5566 22.4566 32.7656C20.7048 33.8316 19.7916 34.0136 18.6996 33.8316C16.7073 33.5001 14.8597 32.9866 13.3517 32.361C11.3139 31.516 11.4131 28.7145 13.3501 27.8988L41.1376 16.1988Z" fill="white"/>
</svg>
