<svg xmlns="http://www.w3.org/2000/svg" width="39" height="39" viewBox="0 0 39 39" fill="none">
  <path d="M19.5017 3.25C28.4766 3.25 35.7517 10.5251 35.7517 19.5C35.7517 28.4749 28.4766 35.75 19.5017 35.75C16.63 35.7549 13.8087 34.9949 11.328 33.5481L3.25823 35.75L5.45523 27.677C4.00729 25.1955 3.2467 22.373 3.25173 19.5C3.25173 10.5251 10.5269 3.25 19.5017 3.25ZM13.9637 11.8625L13.6387 11.8755C13.4286 11.89 13.2233 11.9452 13.0342 12.038C12.858 12.138 12.6971 12.2627 12.5565 12.4085C12.3615 12.5921 12.251 12.7514 12.1324 12.9057C11.5313 13.6872 11.2077 14.6466 11.2126 15.6325C11.2159 16.4287 11.4239 17.2039 11.7489 17.9286C12.4135 19.3944 13.5071 20.9462 14.9501 22.3844C15.2979 22.7305 15.6391 23.0782 16.0064 23.4016C17.7994 24.9802 19.9361 26.1186 22.2464 26.7264L23.1694 26.8677C23.47 26.884 23.7706 26.8612 24.0729 26.8466C24.546 26.8217 25.008 26.6936 25.4265 26.4713C25.6391 26.3613 25.8468 26.242 26.0489 26.1137C26.0489 26.1137 26.1177 26.0672 26.252 25.9675C26.4714 25.805 26.6062 25.6896 26.7882 25.4995C26.9247 25.3587 27.0385 25.1951 27.1295 25.0087C27.2562 24.7439 27.383 24.2385 27.435 23.8176C27.474 23.4959 27.4626 23.3204 27.4577 23.2115C27.4512 23.0376 27.3066 22.8572 27.149 22.7809L26.2032 22.3567C26.2032 22.3567 24.7895 21.7409 23.925 21.3476C23.8345 21.3082 23.7376 21.2857 23.639 21.281C23.5278 21.2694 23.4154 21.2818 23.3094 21.3174C23.2034 21.353 23.1063 21.411 23.0247 21.4874C23.0166 21.4841 22.9077 21.5767 21.7329 23.0002C21.6654 23.0909 21.5725 23.1593 21.466 23.197C21.3595 23.2346 21.2442 23.2396 21.1349 23.2115C21.029 23.1833 20.9252 23.1474 20.8245 23.1042C20.623 23.0197 20.5531 22.9872 20.415 22.9287C19.482 22.5223 18.6184 21.9724 17.8556 21.2989C17.6509 21.1201 17.4607 20.9251 17.2657 20.7366C16.6265 20.1243 16.0693 19.4317 15.6082 18.6761L15.5124 18.5217C15.4445 18.4174 15.3889 18.3056 15.3466 18.1886C15.2849 17.9497 15.4457 17.758 15.4457 17.758C15.4457 17.758 15.8406 17.3257 16.0242 17.0917C16.203 16.8642 16.3541 16.6432 16.4516 16.4856C16.6434 16.1769 16.7035 15.86 16.6027 15.6146C16.1477 14.5031 15.6776 13.3976 15.1922 12.298C15.0964 12.0802 14.812 11.9242 14.5536 11.8934C14.4659 11.8825 14.3781 11.8739 14.2904 11.8674C14.0722 11.8549 13.8534 11.857 13.6355 11.8739L13.9637 11.8625Z" fill="white"/>
</svg>